HIERARCHY
ROOT Hips
{
	OFFSET 0.000000 0.000000 0.000000
	CHANNELS 6 Xposition Yposition Zposition Xrotation Yrotation Zrotation
	JOINT Chest
	{
		OFFSET 0.000000 0.009282 11.569106
		CHANNELS 3 Xrotation Yrotation Zrotation
		JOINT Chest2
		{
			OFFSET 0.000000 -0.016863 9.269641
			CHANNELS 3 Xrotation Yrotation Zrotation
			JOINT Chest3
			{
				OFFSET 0.000000 0.000000 8.374491
				CHANNELS 3 Xrotation Yrotation Zrotation
				JOINT Chest4
				{
					OFFSET 0.000000 0.000000 8.374493
					CHANNELS 3 Xrotation Yrotation Zrotation
					JOINT Neck
					{
						OFFSET 0.000000 -0.000001 12.152554
						CHANNELS 3 Xrotation Yrotation Zrotation
						JOINT Head
						{
							OFFSET 0.000000 -0.040100 7.802319
							CHANNELS 3 Xrotation Yrotation Zrotation
							End Site
							{
								OFFSET 0.000000 -0.020946 14.853096
							}
						}
					}
					JOINT RightCollar
					{
						OFFSET -2.894404 0.000000 6.791374
						CHANNELS 3 Xrotation Yrotation Zrotation
						JOINT RightShoulder
						{
							OFFSET -13.574684 0.000000 0.000000
							CHANNELS 3 Xrotation Yrotation Zrotation
							JOINT RightElbow
							{
								OFFSET -23.923903 0.000000 0.000000
								CHANNELS 3 Xrotation Yrotation Zrotation
								JOINT RightWrist
								{
									OFFSET -19.846718 -0.012765 0.000000
									CHANNELS 3 Xrotation Yrotation Zrotation
									End Site
									{
										OFFSET -14.973145 0.000000 0.000000
									}
								}
							}
						}
					}
					JOINT LeftCollar
					{
						OFFSET 2.894404 0.000000 6.791374
						CHANNELS 3 Xrotation Yrotation Zrotation
						JOINT LeftShoulder
						{
							OFFSET 13.574684 0.000000 0.000000
							CHANNELS 3 Xrotation Yrotation Zrotation
							JOINT LeftElbow
							{
								OFFSET 23.923903 0.000000 0.000000
								CHANNELS 3 Xrotation Yrotation Zrotation
								JOINT LeftWrist
								{
									OFFSET 19.846718 -0.012765 0.000000
									CHANNELS 3 Xrotation Yrotation Zrotation
									End Site
									{
										OFFSET 14.973145 0.000000 0.000000
									}
								}
							}
						}
					}
				}
			}
		}
	}
	JOINT RightHip
	{
		OFFSET -9.469263 -0.004642 0.045487
		CHANNELS 3 Xrotation Yrotation Zrotation
		JOINT RightKnee
		{
			OFFSET 0.000000 -0.002666 -40.478676
			CHANNELS 3 Xrotation Yrotation Zrotation
			JOINT RightAnkle
			{
				OFFSET 0.000000 -0.049110 -35.224068
				CHANNELS 3 Xrotation Yrotation Zrotation
				JOINT RightToe
				{
					OFFSET 0.000000 -12.539530 -6.151390
					CHANNELS 3 Xrotation Yrotation Zrotation
					End Site
					{
						OFFSET 0.000000 -5.044995 -1.291870
					}
				}
			}
		}
	}
	JOINT LeftHip
	{
		OFFSET 9.469263 -0.004642 0.045487
		CHANNELS 3 Xrotation Yrotation Zrotation
		JOINT LeftKnee
		{
			OFFSET 0.000000 -0.002666 -40.478676
			CHANNELS 3 Xrotation Yrotation Zrotation
			JOINT LeftAnkle
			{
				OFFSET 0.000000 -0.049110 -35.224068
				CHANNELS 3 Xrotation Yrotation Zrotation
				JOINT LeftToe
				{
					OFFSET 0.000000 -12.539530 -6.151390
					CHANNELS 3 Xrotation Yrotation Zrotation
					End Site
					{
						OFFSET 0.000000 -5.044995 -1.291870
					}
				}
			}
		}
	}
}
MOTION
Frames: 14
Frame Time: 0.016667
-11.346203 -5.683895 82.977837 3.226393 7.366421 -111.314441 2.922703 0.143231 -0.626583 1.296292 0.062535 -0.283823 1.296294 0.062535 -0.283823 0.972191 0.047503 -0.212735 17.637335 -0.764688 -0.878312 -3.437044 -1.097119 -1.861929 1.746042 -3.453698 2.252621 17.953483 -55.813311 66.900829 3.946368 -38.463036 47.243001 -12.696785 -45.968874 -27.510764 3.672826 9.155157 -7.087210 12.329955 57.749318 -63.094542 15.369690 44.653038 -62.972555 -42.854769 41.239415 25.767631 11.408297 -0.403462 -2.488385 1.797724 -0.131347 0.060849 -5.340149 -0.372061 -0.755294 -0.006708 -0.001916 0.003067 11.282033 0.219059 -0.532898 0.680169 -0.863869 1.237118 -4.127159 0.588219 -0.823371 0.029015 -0.007459 -0.001468 
-11.338658 -5.688118 82.978676 3.228388 7.355575 -111.320766 2.894725 0.159360 -0.606242 1.283602 0.069503 -0.274339 1.283602 0.069502 -0.274340 0.962671 0.052703 -0.205617 17.693509 -0.805341 -0.902945 -3.333420 -1.163717 -1.920174 1.718393 -3.472230 2.307442 17.054231 -55.623684 67.277561 4.501802 -35.846400 46.805944 -10.065265 -45.506767 -26.188651 3.704155 9.110064 -7.111561 12.098909 57.477859 -63.178731 16.046592 43.586944 -63.855343 -40.588228 43.844897 26.744975 11.399317 -0.407896 -2.496558 1.780412 -0.129462 0.069844 -5.325158 -0.380870 -0.753592 -0.003403 0.003695 0.002088 11.271496 0.216408 -0.520753 0.670158 -0.863967 1.227701 -4.116590 0.585673 -0.812990 0.029111 -0.005710 -0.000863 
-11.330516 -5.691454 82.980110 3.232138 7.337143 -111.318840 2.856095 0.176166 -0.586697 1.267566 0.078725 -0.264122 1.267566 0.078725 -0.264117 0.950640 0.059592 -0.197932 17.756270 -0.856033 -0.928596 -3.217759 -1.248418 -1.983528 1.690388 -3.484432 2.370276 16.169752 -55.520388 67.655039 5.086447 -33.379134 46.351600 -7.402763 -44.895581 -24.800658 3.734441 9.070958 -7.139042 11.796546 57.227686 -63.202110 16.929654 42.664295 -64.897473 -39.451319 45.506156 28.701285 11.383262 -0.418525 -2.511132 1.760137 -0.126611 0.074679 -5.302829 -0.390883 -0.744691 -0.004178 0.008373 0.001077 11.256836 0.204510 -0.520460 0.659119 -0.860632 1.220919 -4.094724 0.584787 -0.804135 0.017043 -0.005969 -0.000572 
-11.324134 -5.695041 82.982170 3.233018 7.321789 -111.313813 2.814917 0.202987 -0.551665 1.249587 0.090189 -0.248510 1.249587 0.090189 -0.248498 0.937154 0.068150 -0.186193 17.825865 -0.917035 -0.965550 -3.089697 -1.348292 -2.070835 1.678607 -3.476915 2.380735 15.354214 -55.446940 68.083544 5.799370 -30.931263 46.034061 -4.990228 -44.250378 -23.550135 3.780089 9.010951 -7.184687 11.433784 56.978685 -63.174394 17.986417 41.965939 -65.995911 -37.714956 46.913482 29.687554 11.371573 -0.426953 -2.512659 1.742518 -0.122277 0.065839 -5.285836 -0.399974 -0.739267 -0.004915 0.010694 0.000853 11.243644 0.197961 -0.516806 0.644316 -0.860893 1.211493 -4.079636 0.586728 -0.802318 0.016089 -0.007091 -0.000344 
-11.320319 -5.699096 82.984032 3.229813 7.305858 -111.305794 2.776545 0.229983 -0.511365 1.232464 0.101955 -0.230562 1.232465 0.101956 -0.230565 0.924310 0.076932 -0.172720 17.897484 -0.976641 -1.006214 -2.957899 -1.444487 -2.164314 1.667196 -3.485911 2.435927 14.510523 -55.300633 68.422909 6.628547 -28.440418 45.916958 -2.819314 -43.585814 -22.466101 3.812822 8.941200 -7.230962 11.159009 56.669397 -63.177645 18.961129 41.367789 -67.169453 -35.625529 47.593404 30.260033 11.362476 -0.434281 -2.495663 1.720174 -0.110347 0.038316 -5.269189 -0.415648 -0.733426 -0.005284 0.012887 0.000340 11.231473 0.193617 -0.515086 0.626502 -0.858089 1.207661 -4.064302 0.586733 -0.806168 0.015057 -0.007898 -0.000124 
-11.319854 -5.703169 82.985062 3.223074 7.290312 -111.291341 2.735717 0.255358 -0.480034 1.213941 0.113389 -0.216519 1.213941 0.113389 -0.216513 0.910418 0.085472 -0.162157 17.977686 -1.030275 -1.045910 -2.810088 -1.530341 -2.253817 1.650493 -3.485644 2.481409 13.702677 -55.123465 68.719551 7.602233 -25.984087 46.033026 -0.832143 -42.904950 -21.477772 3.854392 8.883808 -7.262421 11.010770 56.381043 -63.259901 19.906402 40.566918 -68.458440 -32.713481 47.758165 30.518190 11.357665 -0.439012 -2.492976 1.693371 -0.101091 0.022819 -5.253108 -0.427574 -0.738047 -0.005572 0.013725 0.000645 11.220496 0.195180 -0.516342 0.608483 -0.860927 1.203535 -4.051081 0.587755 -0.822259 0.014442 -0.007629 -0.000346 
-11.319826 -5.706212 82.985405 3.213529 7.270790 -111.268385 2.695852 0.284931 -0.456240 1.196272 0.126652 -0.205838 1.196273 0.126653 -0.205834 0.897161 0.095393 -0.154127 18.057584 -1.084570 -1.081248 -2.662931 -1.618950 -2.335470 1.606315 -3.490979 2.513615 12.905922 -55.050498 68.952918 8.778367 -23.571864 46.366121 1.031954 -42.158383 -20.477747 3.900897 8.833271 -7.290648 10.811953 56.211296 -63.341897 21.022991 39.388905 -69.816650 -29.161387 47.552965 30.614049 11.350892 -0.442562 -2.497222 1.664425 -0.092879 0.009210 -5.238960 -0.440154 -0.734749 -0.004508 0.014532 0.000800 11.203476 0.196356 -0.518365 0.589859 -0.861735 1.192486 -4.036931 0.588748 -0.819570 0.014760 -0.009128 -0.000309 
-11.320655 -5.708182 82.985596 3.199953 7.251276 -111.241474 2.660755 0.317285 -0.436110 1.179654 0.139187 -0.197747 1.179653 0.139187 -0.197754 0.884694 0.104772 -0.148045 18.136719 -1.135072 -1.115891 -2.517146 -1.700950 -2.414518 1.585620 -3.478105 2.532283 12.090174 -55.106598 69.154135 10.166613 -21.203822 46.937514 2.841694 -41.380728 -19.391430 3.940200 8.804519 -7.310894 10.405073 56.157740 -63.281156 22.487047 37.996800 -71.197332 -25.269495 47.136642 30.463296 11.345600 -0.444416 -2.491116 1.639135 -0.086238 -0.009212 -5.234656 -0.447524 -0.744316 -0.000277 0.013517 0.001709 11.182702 0.196287 -0.509921 0.572507 -0.860036 1.177279 -4.034251 0.591756 -0.839463 0.027372 -0.009916 -0.000273 
-11.320364 -5.707024 82.986046 3.187399 7.222354 -111.210472 2.626248 0.343807 -0.419629 1.164487 0.151136 -0.191042 1.164488 0.151137 -0.191047 0.873317 0.113717 -0.142992 18.211410 -1.178889 -1.151529 -2.379494 -1.770421 -2.493116 1.607866 -3.460406 2.542891 11.245632 -55.222336 69.329466 11.655241 -18.851780 47.749368 4.388367 -40.724429 -18.443051 3.983178 8.770473 -7.324388 9.875154 56.080672 -63.110757 24.101484 36.588931 -72.519288 -21.728737 46.598317 30.324404 11.323340 -0.449702 -2.485042 1.625939 -0.086323 -0.018985 -5.229211 -0.446978 -0.766398 -0.000616 0.011493 0.001547 11.158507 0.190719 -0.489707 0.548389 -0.857732 1.152396 -4.019394 0.594672 -0.852923 0.029278 -0.010683 0.000574 
-11.320546 -5.704342 82.986984 3.174073 7.193916 -111.180310 2.591917 0.365112 -0.410302 1.149600 0.160850 -0.187973 1.149603 0.160850 -0.187968 0.862152 0.120992 -0.140677 18.287213 -1.208523 -1.185506 -2.239460 -1.814657 -2.563898 1.628617 -3.439291 2.539406 10.568679 -55.360326 69.609388 13.054403 -16.589095 48.716324 5.665887 -40.066665 -17.703797 4.009906 8.729225 -7.328268 9.522569 55.850802 -63.013700 25.569923 35.285625 -73.698820 -18.660208 46.062362 30.242841 11.298704 -0.454346 -2.469837 1.619137 -0.087911 -0.034116 -5.225728 -0.444056 -0.789400 -0.002675 0.009626 0.001437 11.136484 0.186348 -0.458894 0.522686 -0.859182 1.126461 -4.004200 0.602051 -0.870246 0.030274 -0.011608 0.001154 
-11.321863 -5.700154 82.988129 3.161503 7.171326 -111.154560 2.552039 0.376513 -0.413229 1.132310 0.166316 -0.190073 1.132311 0.166316 -0.190069 0.849181 0.125090 -0.142245 18.373351 -1.215813 -1.215294 -2.079686 -1.819762 -2.619450 1.655162 -3.404498 2.529196 10.116678 -55.544092 70.047920 14.285551 -14.343846 49.768928 6.864750 -39.188531 -16.957838 4.050159 8.681086 -7.328654 9.420106 55.509938 -63.045644 26.760843 34.204812 -74.738061 -15.537975 45.407190 29.874534 11.280894 -0.455763 -2.441684 1.611783 -0.093240 -0.060104 -5.222482 -0.439093 -0.811139 -0.004756 0.008418 0.000650 11.121311 0.181950 -0.427319 0.497385 -0.857467 1.101264 -3.988618 0.607651 -0.892449 0.029389 -0.011825 0.002181 
-11.325093 -5.694859 82.988983 3.153217 7.156127 -111.134117 2.515129 0.376459 -0.431200 1.115948 0.166538 -0.198696 1.115948 0.166538 -0.198688 0.836905 0.125267 -0.148715 18.470978 -1.200910 -1.238554 -1.897993 -1.786776 -2.655606 1.684406 -3.366510 2.542935 9.833569 -55.788678 70.595408 15.367676 -12.031146 50.906336 8.004209 -38.190350 -16.246047 4.072730 8.640993 -7.309838 9.449664 55.203494 -63.113864 27.746421 33.139046 -75.715311 -12.437261 44.392832 29.672616 11.276098 -0.458636 -2.420549 1.596886 -0.096415 -0.079666 -5.216951 -0.439112 -0.829676 -0.005952 0.010408 0.000095 11.115617 0.179079 -0.407894 0.475816 -0.860532 1.084638 -3.977282 0.613729 -0.913037 0.028362 -0.010346 0.002411 
-11.328028 -5.689350 82.989189 3.146620 7.143493 -111.126051 2.489547 0.367911 -0.457594 1.104715 0.163031 -0.210382 1.104715 0.163031 -0.210377 0.828480 0.122654 -0.157486 18.575311 -1.166166 -1.254837 -1.703312 -1.720026 -2.672449 1.719614 -3.323133 2.577730 9.639713 -56.115598 71.200132 16.400756 -9.629411 52.117560 9.021744 -37.170695 -15.604327 4.086398 8.620737 -7.285104 9.434471 55.116410 -63.112655 28.716885 31.703467 -76.642707 -9.125975 43.273487 29.570058 11.271893 -0.461466 -2.411945 1.584364 -0.096475 -0.086980 -5.214294 -0.437539 -0.834434 -0.004211 0.009353 0.000364 11.110477 0.181792 -0.405267 0.461476 -0.869447 1.085388 -3.969726 0.619407 -0.913967 0.027007 -0.007595 0.001885 
-11.331185 -5.684643 82.988548 3.140295 7.129743 -111.131638 2.467231 0.368837 -0.467212 1.094663 0.163686 -0.214226 1.094664 0.163686 -0.214220 0.820938 0.123149 -0.160374 18.691337 -1.138104 -1.275544 -1.487089 -1.664300 -2.699550 1.778127 -3.303843 2.581073 9.480438 -56.529224 71.826939 17.398003 -7.248017 53.362089 9.959352 -36.209654 -15.004619 4.107601 8.602188 -7.285890 9.364029 55.249725 -63.061210 29.727548 29.703072 -77.438185 -5.779327 42.271843 29.285727 11.263718 -0.464256 -2.405445 1.574944 -0.090156 -0.084064 -5.213921 -0.440062 -0.833830 -0.000615 0.008355 0.000632 11.104429 0.184490 -0.408120 0.451893 -0.875442 1.091446 -3.967218 0.620480 -0.909829 0.026200 -0.002941 0.001411 
